<?xml version="1.0" encoding="utf-8"?>
<!-- Generator: Adobe Illustrator 25.0.0, SVG Export Plug-In . SVG Version: 6.00 Build 0)  -->
<svg version="1.1" id="Layer_1" xmlns="http://www.w3.org/2000/svg" xmlns:xlink="http://www.w3.org/1999/xlink" x="0px" y="0px"
	 viewBox="0 0 500 500" style="enable-background:new 0 0 500 500;" xml:space="preserve">
<style type="text/css">
	.st0{fill:#000B1D;}
	.st1{fill-rule:evenodd;clip-rule:evenodd;fill:#FFFFFF;}
	.st2{fill:#FFFFFF;}
</style>
<g id="Portfolio" transform="translate(2303 664)">
	<path id="_23" class="st0" d="M-2199.2-626.6h292.3c36.7,0,66.4,29.7,66.4,66.4v292.3c0,36.7-29.7,66.4-66.4,66.4h-292.3
		c-36.7,0-66.4-29.7-66.4-66.4v-292.3C-2265.6-596.9-2235.9-626.6-2199.2-626.6z"/>
	<path id="_46" class="st1" d="M-2058-398.1L-2058-398.1c-14.1,10.2-31.9,15.2-53.3,15.2h-9l-2.7-0.1v57.6c0,1.2-0.4,2.3-1.3,3.1
		c-0.9,0.7-2,1.1-3.1,1h-28.5c-2.2,0.1-4-1.5-4.2-3.7c0-0.2,0-0.3,0-0.5v-173.9c0-1,0.3-2.1,1-2.9c0.7-0.8,1.8-1.3,2.9-1.3
		c11.5-0.4,27.7-0.5,48.5-0.5c24,0,42.1,5.5,53.8,17.1c11.6,10.9,18.1,26.3,17.6,42.3C-2036.4-424.3-2043.5-408.7-2058-398.1z
		 M-2082.4-466.6L-2082.4-466.6c-5.8-5.4-14.1-8.3-25.4-8.3c-7.4,0-12.4,0.1-15.2,0.3v62.1c2.8,0.2,7.2,0.3,13.3,0.3
		c9.3,0.4,18.6-2.2,26.4-7.4c6.4-4.8,9.8-12.8,9.8-24.5C-2073-452.5-2076.2-460.8-2082.4-466.6L-2082.4-466.6z"/>
	<path id="_47" class="st2" d="M-1955.8-484c-3.1,5.1-4.4,11.1-4,17v10.1h20.3c2.2-0.1,4,1.5,4.2,3.7c0,0.2,0,0.3,0,0.5v19.9
		c0,1.1-0.3,2.2-1,3c-0.7,0.8-1.7,1.3-2.8,1.4l-0.2,0h-20.5v102.7c0.2,2.3-1.6,4.3-3.8,4.4c-0.2,0-0.4,0-0.6,0h-28.5
		c-2.3,0.2-4.3-1.6-4.4-3.8c0-0.2,0-0.4,0-0.6v-102.7h-13.3c-1.2,0-2.3-0.5-3-1.5c-0.6-0.9-0.9-1.9-0.9-3v-19.9c0-1,0.3-2.1,1-2.9
		c0.7-0.8,1.8-1.3,2.9-1.3h13.3v-7.4c-0.4-10.8,1.8-21.6,6.4-31.4c3.6-7.6,9.3-14.1,16.5-18.5c7.6-4.3,16.2-6.4,24.9-6.2
		c5.7-0.3,11.4,0.6,16.7,2.6c1,0.3,1.8,1,2.3,1.9c0.5,0.9,0.8,1.9,0.7,2.9v21.8c0.1,1.2-0.4,2.5-1.3,3.3c-1.1,0.8-2.6,1-3.8,0.4
		c-3.1-1.2-6.3-1.8-9.6-1.7C-1948.8-489.5-1953.1-487.6-1955.8-484z"/>
</g>
</svg>
